# xmcd CD database file
#
# Track frame offsets:
#	150
#	20841
#	37819
#	59941
#	73576
#	95593
#	114774
#	128252
#	146163
#	165584
#	185563
#
# Disc length: 2672 seconds
#
# Revision: 0
# Processed by: cddbd v1.5.1PL2 Copyright (c) Steve Scherf et al.
# Submitted via: CDex 1.51
#
DISCID=980a6e0b
DTITLE=Kellie Rucker - Ain't Hit Bottom
DYEAR=2006
DGENRE=Blues
TTITLE0=Ain't I the Right One
TTITLE1=Bed of Lies
TTITLE2=Blues is Blues
TTITLE3=Ain't Hit Bottom
TTITLE4=Don't Need to Know
TTITLE5=Cook For You
TTITLE6=My Own Little World
TTITLE7=Nothin' to Lose
TTITLE8=Tied Up, Tied Down and Twisted
TTITLE9=Rollin' in Clover
TTITLE10=Walkin' By Myself
EXTD=YEAR: 2006
EXTT0=
EXTT1=
EXTT2=
EXTT3=
EXTT4=
EXTT5=
EXTT6=
EXTT7=
EXTT8=
EXTT9=
EXTT10=
PLAYORDER=
